<?xml version="1.0" standalone="no"?>
<!DOCTYPE svg PUBLIC "-//W3C//DTD SVG 20010904//EN"
 "http://www.w3.org/TR/2001/REC-SVG-20010904/DTD/svg10.dtd">
<svg version="1.0" xmlns="http://www.w3.org/2000/svg"
 width="260.000000pt" height="260.000000pt" viewBox="0 0 260.000000 260.000000"
 preserveAspectRatio="xMidYMid meet">
<metadata>
Created by potrace 1.11, written by Peter Selinger 2001-2013
</metadata>
<g transform="translate(0.000000,260.000000) scale(0.100000,-0.100000)"
fill="#000000" stroke="none">
<path d="M385 2491 c-6 -21 -18 -21 -52 -3 -13 7 -23 8 -23 3 0 -5 6 -12 13
-15 6 -2 2 -4 -10 -2 -12 1 -26 6 -30 11 -5 4 -2 5 6 0 10 -6 12 -4 6 5 -6 10
-11 9 -21 -4 -11 -16 -13 -16 -24 1 -10 16 -11 16 -6 1 3 -10 1 -18 -4 -18 -6
0 -10 6 -10 13 0 8 -2 9 -8 1 -4 -7 -16 -13 -27 -15 -20 -4 -20 -13 -23 -802
l-2 -797 21 0 c13 0 18 -4 13 -12 -4 -7 -3 -10 1 -5 5 4 18 -1 29 -10 12 -10
15 -11 9 -3 -19 20 -16 26 11 26 14 0 22 -4 20 -8 -3 -5 -11 -5 -17 -1 -7 4
-6 0 2 -10 15 -18 26 -23 16 -7 -3 6 3 10 14 10 12 0 21 -5 21 -12 0 -6 6 -4
13 7 8 10 28 19 45 20 22 1 29 -2 23 -9 -7 -8 33 -10 141 -8 117 3 148 1 143
-9 -5 -8 -4 -10 4 -5 8 5 9 12 2 20 -7 8 -4 12 10 13 12 1 17 -3 13 -10 -4 -7
4 -2 16 10 l23 22 -1 290 c-1 194 2 291 9 291 6 0 7 5 3 12 -4 7 -3 8 5 4 9
-6 9 -12 -1 -24 -11 -15 -11 -15 4 -4 11 9 18 10 23 2 3 -5 12 -10 18 -10 8 0
8 3 -1 9 -10 6 -9 11 4 22 12 9 15 10 10 2 -4 -8 -1 -13 8 -13 9 0 16 5 16 11
0 5 5 7 10 4 6 -4 7 -12 4 -18 -4 -7 -4 -9 1 -5 4 4 14 3 22 -3 10 -9 13 -8
13 1 0 8 3 10 7 7 3 -4 12 -2 20 4 7 6 13 8 13 3 0 -5 5 -2 10 6 8 13 10 12
10 -2 0 -10 5 -18 11 -18 6 0 8 7 5 16 -3 8 -2 12 3 9 5 -3 12 -1 16 4 7 12
42 6 60 -9 10 -8 13 -7 11 6 0 11 7 18 21 19 13 1 20 -3 17 -9 -3 -6 1 -3 9 7
20 24 30 21 17 -5 -11 -22 -10 -22 4 -4 9 11 16 24 16 29 0 4 5 5 10 2 6 -3
10 -1 10 4 0 6 5 11 11 11 5 0 7 -4 4 -10 -3 -6 1 -7 9 -4 9 3 14 9 11 14 -2
4 7 13 21 21 14 7 30 21 35 31 5 10 17 18 27 18 11 0 13 -3 6 -8 -11 -6 -24
-73 -39 -192 -7 -62 -9 -790 -1 -797 3 -4 6 -21 6 -39 0 -47 22 -134 34 -134
5 0 1 -6 -10 -14 -19 -14 -19 -14 1 -13 14 1 20 -4 18 -16 0 -11 4 -16 12 -14
6 3 23 -12 36 -33 16 -25 27 -34 32 -26 5 6 7 2 4 -12 -4 -18 -2 -22 9 -18 8
3 14 1 14 -5 0 -6 4 -7 10 -4 6 3 7 -1 4 -10 -5 -11 -2 -14 12 -8 13 5 15 3 9
-8 -7 -11 -5 -11 10 1 11 9 16 10 11 2 -6 -11 5 -17 27 -13 4 0 7 -3 7 -9 0
-5 -5 -10 -11 -10 -5 0 -7 -5 -4 -11 5 -6 11 -4 19 7 11 15 14 15 28 0 9 -9
24 -13 32 -10 11 4 16 0 16 -12 0 -15 2 -16 9 -5 7 11 10 9 16 -9 5 -17 9 -19
15 -10 13 21 49 20 45 -1 -3 -12 1 -16 11 -12 7 3 11 9 8 14 -3 5 -1 9 4 9 5
0 14 -10 21 -23 11 -20 11 -21 8 -1 -3 13 1 21 10 21 8 0 12 -5 10 -12 -3 -6
3 -11 13 -11 12 0 16 5 12 16 -5 13 -3 13 11 1 9 -7 14 -18 10 -24 -4 -7 6 -2
22 11 15 12 31 19 34 16 3 -4 0 -9 -6 -11 -7 -3 -13 -9 -13 -15 0 -7 5 -7 13
1 8 6 18 7 22 3 5 -4 5 -2 2 4 -4 7 1 18 10 25 9 8 14 9 10 3 -4 -7 0 -14 8
-18 8 -3 17 0 21 6 5 7 2 8 -7 4 -8 -4 -5 0 5 8 14 11 23 13 32 5 8 -7 14 -6
20 2 5 8 3 9 -6 4 -9 -5 -11 -4 -6 4 6 9 11 9 21 1 10 -8 15 -8 21 1 4 8 3 9
-4 5 -7 -4 -12 -4 -12 -1 0 3 18 14 41 24 22 10 41 22 42 27 3 13 26 14 34 2
3 -6 1 -8 -4 -5 -6 4 -13 0 -17 -8 -3 -8 0 -17 6 -21 7 -4 8 -3 4 4 -4 7 -1
12 7 12 17 0 30 -27 20 -42 -4 -7 -1 -8 7 -3 18 11 91 14 84 4 -2 -5 -10 -6
-18 -3 -7 3 -13 -1 -13 -8 0 -8 8 -14 18 -14 10 0 16 3 14 6 -2 3 5 11 16 18
14 9 18 9 17 1 -2 -6 3 -14 10 -16 7 -3 10 1 7 9 -4 9 0 15 9 15 8 0 12 -6 9
-14 -3 -7 0 -13 6 -13 6 0 11 5 11 10 0 6 9 10 20 10 11 0 20 -5 20 -11 0 -6
6 -9 14 -6 7 3 19 0 26 -6 10 -9 11 -9 5 2 -6 11 -4 13 10 7 14 -5 16 -4 6 7
-9 12 -6 14 14 11 14 -1 33 -8 41 -15 12 -10 13 -9 7 7 -6 17 -5 18 13 4 10
-8 16 -11 12 -6 -4 5 -1 15 7 23 8 8 15 29 15 46 1 18 1 207 1 421 0 434 5
405 -71 410 -12 0 -25 8 -30 16 -8 12 -10 12 -10 -5 -1 -20 -1 -20 -15 -1 -15
20 -15 20 -16 0 0 -10 -3 -13 -6 -6 -2 6 -9 12 -14 12 -6 0 -8 -3 -6 -8 3 -4
-10 -7 -29 -8 -19 0 -34 2 -34 6 0 3 -16 4 -36 2 -29 -4 -35 -2 -30 9 4 8 1 6
-7 -4 -12 -14 -16 -15 -26 -4 -6 8 -7 18 -3 23 4 5 -2 1 -14 -9 -25 -21 -119
-25 -109 -4 4 6 1 5 -7 -3 -14 -17 -113 -21 -137 -6 -10 7 -12 5 -6 -4 5 -8 3
-11 -6 -8 -33 11 -40 -18 -38 -161 1 -112 4 -141 15 -145 8 -3 13 -2 10 3 -3
5 7 8 24 7 36 -1 38 -8 36 -143 -1 -112 -10 -138 -47 -143 -30 -5 -38 1 -48
33 -13 40 -14 927 0 927 4 0 5 7 2 17 -4 10 -2 14 5 9 6 -3 15 1 20 10 8 15
10 14 16 -2 5 -14 9 -15 15 -5 6 9 10 8 13 -7 5 -17 2 -20 -20 -16 -15 3 -24
2 -20 -1 5 -6 25 -11 49 -14 3 -1 7 -58 8 -128 2 -143 3 -159 16 -170 4 -4 5
-2 1 5 -4 7 -1 12 8 12 8 0 16 -5 18 -12 2 -6 14 -12 25 -13 12 -1 19 3 17 10
-3 6 2 12 10 12 8 0 13 -4 10 -9 -3 -4 8 -8 25 -8 16 0 32 -4 35 -9 6 -10 35
-9 39 1 1 4 -2 10 -7 15 -5 4 -7 3 -3 -3 3 -6 -1 -11 -9 -11 -10 0 -11 4 -4
11 12 12 51 16 44 4 -3 -4 7 -8 23 -9 15 0 36 -2 46 -4 9 -2 15 1 12 5 -3 5
-1 11 5 15 5 3 10 0 10 -7 0 -10 23 -13 96 -11 53 1 99 5 102 9 4 4 1 4 -5 0
-7 -4 -13 -2 -13 3 0 14 13 14 28 -1 9 -9 12 -9 12 -1 0 7 8 14 18 17 16 5 17
17 15 94 -6 161 -40 332 -66 332 -5 0 -7 7 -3 15 3 9 0 15 -10 15 -11 0 -14 6
-10 16 3 8 2 12 -4 9 -20 -12 -31 7 -13 21 17 13 17 14 0 8 -23 -8 -100 44
-93 63 3 7 1 13 -4 13 -6 0 -10 -5 -10 -11 0 -5 -5 -7 -10 -4 -6 4 -7 12 -3
18 5 9 3 9 -8 0 -12 -10 -17 -8 -27 8 -7 10 -18 19 -25 19 -8 0 -7 -4 3 -10
23 -15 6 -12 -26 4 -15 8 -32 12 -38 9 -6 -4 -5 1 3 10 13 16 12 17 -10 9 -13
-5 -33 -6 -44 -2 -11 4 -24 5 -29 2 -5 -3 -6 0 -2 6 4 7 -8 9 -34 8 -23 -2
-43 1 -45 5 -3 4 -21 6 -41 5 -28 -3 -34 0 -29 12 4 11 2 12 -8 4 -10 -9 -17
-8 -26 1 -10 9 -11 8 -6 -5 4 -11 2 -18 -4 -18 -10 0 -15 14 -12 34 1 5 -5 4
-13 -4 -19 -15 -21 -24 -4 -14 6 4 8 3 5 -3 -3 -5 -38 -9 -76 -9 -39 1 -71 -3
-71 -8 0 -5 -7 -3 -15 4 -13 10 -18 11 -28 1 -9 -10 -8 -11 8 -6 19 6 19 6 1
-5 -15 -10 -20 -9 -27 1 -7 12 -9 11 -9 -1 0 -13 -1 -13 -10 0 -5 8 -10 10
-10 4 0 -6 -11 -16 -25 -22 -15 -7 -25 -8 -25 -2 0 6 -4 10 -10 10 -5 0 -9 -3
-9 -7 3 -20 -2 -24 -16 -13 -13 11 -14 10 -9 -4 4 -11 1 -16 -11 -16 -9 0 -13
4 -10 10 3 6 -1 7 -10 3 -12 -4 -13 -8 -5 -13 9 -5 9 -9 1 -14 -6 -4 -11 -4
-11 1 0 4 -5 1 -10 -7 -7 -11 -12 -12 -17 -4 -6 9 -12 7 -23 -4 -13 -14 -12
-15 4 -9 16 6 17 5 6 -8 -7 -8 -16 -12 -21 -9 -5 3 -9 0 -9 -6 0 -6 -4 -8 -10
-5 -5 3 -10 1 -10 -5 0 -6 -7 -19 -16 -27 -13 -14 -17 -14 -26 -2 -8 11 -9 11
-5 -2 3 -9 -6 -29 -20 -45 -23 -27 -24 -27 -10 -3 9 14 19 42 22 62 4 20 11
35 15 32 5 -3 12 -1 15 5 4 6 1 9 -7 8 -7 -2 -11 4 -9 12 2 8 3 89 3 179 -1
175 -15 301 -38 336 -8 12 -11 25 -7 28 3 4 1 7 -5 7 -7 0 -12 10 -12 23 0 18
-2 19 -10 7 -9 -13 -10 -13 -11 0 -1 8 -1 18 0 22 0 4 -7 4 -16 1 -11 -4 -14
-3 -9 5 4 7 1 12 -7 12 -8 0 -20 7 -27 15 -7 8 -16 12 -21 9 -5 -3 -12 2 -15
11 -4 9 -12 14 -18 12 -17 -7 -58 12 -51 23 3 5 1 10 -4 10 -6 0 -11 -5 -11
-11 0 -5 -5 -7 -10 -4 -6 4 -7 12 -3 18 4 7 0 6 -10 -2 -13 -10 -17 -10 -17
-1 0 10 -3 10 -15 0 -18 -15 -20 0 -2 20 10 12 9 12 -4 2 -9 -6 -20 -8 -24 -4
-5 4 -5 1 -1 -5 4 -7 2 -13 -3 -13 -6 0 -11 4 -11 9 0 14 -29 21 -36 9 -4 -7
-3 -8 4 -4 7 4 12 2 12 -3 0 -17 -18 -13 -29 7 -10 16 -10 16 -11 -1 0 -12 -4
-16 -12 -10 -7 4 -24 8 -38 8 -14 0 -35 6 -47 13 -13 7 -23 8 -23 3 0 -5 6
-11 13 -14 6 -2 -13 -3 -45 -3 -31 1 -54 4 -52 7 9 15 -27 17 -41 3 -14 -15
-19 -11 -16 11 1 6 -6 1 -14 -9 -8 -11 -15 -14 -15 -8 0 7 -5 12 -11 12 -5 0
-7 -4 -4 -10 9 -15 -4 -12 -21 5 -18 17 -34 20 -34 4 0 -5 5 -7 10 -4 6 3 10
2 10 -3 0 -5 -22 -8 -50 -8 -27 1 -50 5 -50 10 0 4 7 5 16 2 14 -6 15 -4 4 9
-12 15 -15 15 -24 -2 -6 -10 -21 -19 -33 -19 -13 -1 -21 1 -19 5 2 3 -2 12 -9
18 -11 10 -15 9 -20 -6z m305 -11 c0 -5 -5 -10 -11 -10 -5 0 -7 5 -4 10 3 6 8
10 11 10 2 0 4 -4 4 -10z m80 -342 c0 -5 4 -6 10 -3 6 4 7 -1 3 -12 -5 -14 -3
-16 7 -6 14 13 40 7 40 -9 0 -6 -5 -7 -13 -2 -7 5 -5 2 5 -8 21 -19 25 -64 6
-52 -10 6 -10 4 0 -8 19 -23 12 -183 -8 -202 -8 -8 -30 -17 -48 -21 l-33 -7 2
169 c2 134 5 170 16 170 7 0 13 -4 13 -9z m115 -658 c3 -5 1 -10 -4 -10 -6 0
-11 5 -11 10 0 6 2 10 4 10 3 0 8 -4 11 -10z m1190 -300 c3 -6 -1 -7 -9 -4
-18 7 -21 14 -7 14 6 0 13 -4 16 -10z m120 0 c3 -6 -1 -7 -9 -4 -18 7 -21 14
-7 14 6 0 13 -4 16 -10z m-50 -70 c3 -5 1 -10 -4 -10 -6 0 -11 5 -11 10 0 6 2
10 4 10 3 0 8 -4 11 -10z m-1830 -250 c3 -6 -1 -7 -9 -4 -18 7 -21 14 -7 14 6
0 13 -4 16 -10z m135 -2 c0 -11 -12 -10 -30 2 -12 7 -10 9 8 7 12 0 22 -5 22
-9z m1894 -646 c3 -5 -1 -9 -9 -9 -8 0 -12 4 -9 9 3 4 7 8 9 8 2 0 6 -4 9 -8z"/>
<path d="M755 2120 c3 -5 8 -10 11 -10 2 0 4 5 4 10 0 6 -5 10 -11 10 -5 0 -7
-4 -4 -10z"/>
<path d="M764 1842 c3 -5 0 -13 -6 -15 -9 -4 -10 -6 -1 -6 17 -1 25 16 12 25
-7 4 -9 3 -5 -4z"/>
<path d="M433 2495 c0 -8 4 -12 9 -9 5 3 6 10 3 15 -9 13 -12 11 -12 -6z"/>
<path d="M513 2497 c0 -8 6 -14 14 -14 9 0 10 4 2 14 -6 7 -12 13 -14 13 -1 0
-2 -6 -2 -13z"/>
<path d="M753 2497 c0 -8 6 -14 14 -14 9 0 10 4 2 14 -6 7 -12 13 -14 13 -1 0
-2 -6 -2 -13z"/>
<path d="M1755 1879 c-4 -6 -5 -12 -2 -15 2 -3 7 2 10 11 7 17 1 20 -8 4z"/>
<path d="M1797 1883 c-10 -9 -9 -23 1 -23 5 0 9 7 9 15 0 17 -1 18 -10 8z"/>
<path d="M2006 1858 c3 -5 10 -6 15 -3 13 9 11 12 -6 12 -8 0 -12 -4 -9 -9z"/>
<path d="M986 1473 c-6 -14 -5 -15 5 -6 7 7 10 15 7 18 -3 3 -9 -2 -12 -12z"/>
<path d="M2256 1127 c3 -10 9 -15 12 -12 3 3 0 11 -7 18 -10 9 -11 8 -5 -6z"/>
<path d="M1954 1122 c4 -3 14 -7 22 -8 9 -1 13 0 10 4 -4 3 -14 7 -22 8 -9 1
-13 0 -10 -4z"/>
<path d="M2396 1122 c-3 -5 1 -9 9 -9 8 0 12 4 9 9 -3 4 -7 8 -9 8 -2 0 -6 -4
-9 -8z"/>
<path d="M2436 1118 c3 -5 10 -6 15 -3 13 9 11 12 -6 12 -8 0 -12 -4 -9 -9z"/>
<path d="M355 850 c3 -5 8 -10 11 -10 2 0 4 5 4 10 0 6 -5 10 -11 10 -5 0 -7
-4 -4 -10z"/>
<path d="M1869 783 c-12 -16 -12 -17 2 -6 9 7 20 9 24 5 5 -4 5 -1 1 6 -9 16
-11 15 -27 -5z"/>
<path d="M1310 366 c0 -2 8 -10 18 -17 15 -13 16 -12 3 4 -13 16 -21 21 -21
13z"/>
<path d="M1990 220 c0 -5 5 -10 10 -10 6 0 10 5 10 10 0 6 -4 10 -10 10 -5 0
-10 -4 -10 -10z"/>
<path d="M1551 194 c0 -11 3 -14 6 -6 3 7 2 16 -1 19 -3 4 -6 -2 -5 -13z"/>
</g>
</svg>
